<svg width="25" height="25" viewBox="0 0 25 25" fill="none" xmlns="http://www.w3.org/2000/svg">
<path d="M24.4588 24.5412C24.1724 24.8276 23.7068 24.8235 23.4255 24.5322L18.8306 19.7731C18.4637 19.3932 17.8676 19.3689 17.4343 19.6709C16.7044 20.1797 15.8993 20.592 15.0192 20.9079C13.8289 21.3352 12.6326 21.5488 11.4301 21.5488C8.49778 21.5488 6.01593 20.5338 3.98456 18.5039C1.95319 16.474 0.9375 13.9931 0.9375 11.0611C0.9375 8.12918 1.95197 5.64703 3.9809 3.61469C6.00983 1.58234 8.49045 0.564946 11.4228 0.562504C14.3551 0.560063 16.8381 1.57563 18.8719 3.60919C20.9058 5.64276 21.9227 8.12491 21.9227 11.0556C21.9227 12.3275 21.6974 13.5585 21.247 14.7486C20.912 15.6335 20.4988 16.4233 20.0073 17.1179C19.7191 17.5252 19.715 18.0824 20.0432 18.4582L24.4922 23.5526C24.7428 23.8396 24.7282 24.2718 24.4588 24.5412ZM11.4319 19.716C13.8613 19.716 15.9122 18.8799 17.5846 17.2076C19.2571 15.5353 20.0933 13.4841 20.0933 11.0538C20.0933 8.62353 19.2571 6.57288 17.5846 4.90184C15.9122 3.2308 13.8613 2.39467 11.4319 2.39345C9.00257 2.39223 6.95105 3.22836 5.27736 4.90184C3.60368 6.57532 2.76745 8.62598 2.76867 11.0538C2.76989 13.4816 3.60612 15.5323 5.27736 17.2058C6.94861 18.8793 8.99952 19.7154 11.4301 19.7142" fill="white"/>
</svg>
